PathFileType	4	(X/Y/Z)	RBDS015\RBDS015runT45.trc
DataRate	CameraRate	NumFrames	NumMarkers	Units	OrigDataRate	OrigDataStartFrame	OrigNumFrames
150.000000	150.000000	5	33	mm	150.000000	3937	4500
Frame#	Time	L.ASIS			L.Heel.Bottom			L.Heel.Lateral			L.Heel.Top			L.Iliac.Crest			L.MT1			L.MT5			L.PSIS			L.Shank.Bottom.Lateral			L.Shank.Bottom.Medial			L.Shank.Top.Lateral			L.Shank.Top.Medial			L.Thigh.Bottom.Lateral			L.Thigh.Bottom.Medial			L.Thigh.Top.Lateral			L.Thigh.Top.Medial			R.ASIS			R.ASY			R.Heel.Bottom			R.Heel.Lateral			R.Heel.Top			R.Iliac.Crest			R.MT1			R.MT5			R.PSIS			R.Shank.Bottom.Lateral			R.Shank.Bottom.Medial			R.Shank.Top.Lateral			R.Shank.Top.Medial			R.Thigh.Bottom.Lateral			R.Thigh.Bottom.Medial			R.Thigh.Top.Lateral			R.Thigh.Top.Medial			
		X1	Y1	Z1	X2	Y2	Z2	X3	Y3	Z3	X4	Y4	Z4	X5	Y5	Z5	X6	Y6	Z6	X7	Y7	Z7	X8	Y8	Z8	X9	Y9	Z9	X10	Y10	Z10	X11	Y11	Z11	X12	Y12	Z12	X13	Y13	Z13	X14	Y14	Z14	X15	Y15	Z15	X16	Y16	Z16	X17	Y17	Z17	X18	Y18	Z18	X19	Y19	Z19	X20	Y20	Z20	X21	Y21	Z21	X22	Y22	Z22	X23	Y23	Z23	X24	Y24	Z24	X25	Y25	Z25	X26	Y26	Z26	X27	Y27	Z27	X28	Y28	Z28	X29	Y29	Z29	X30	Y30	Z30	X31	Y31	Z31	X32	Y32	Z32	X33	Y33	Z33	

3938	26.24666666666667	2196.000985537428	1042.969542893034	926.1734076184343	1407.819910629834	462.7834375367554	998.1521272522493	1417.091047286773	440.5795409609268	952.610533291813	1448.304930948891	454.7672971680074	992.2746688935948	2167.654831123404	1147.915647542467	887.1309290870106	1427.831561521028	253.3675080737095	1021.187847691258	1394.883560029831	288.7770789585829	918.039040233665	2022.232597416263	1123.504313855794	978.6912076324303	1551.592548713423	440.0972697938145	920.6591461146717	1532.277805800126	477.9702894219947	949.218988551279	1620.443112848585	481.4833475211249	907.614182420214	1603.814881654687	522.1209108520676	937.4677781562808	1957.071785265735	699.6267474525977	875.3782130695649	1901.753695768805	725.356476050657	906.0693385390022	1997.713406513292	801.4585896320568	862.6852245430729	1939.980065167037	828.0457177769238	898.0124432392357	2183.767371785105	1051.953441223291	1137.012747474824	2544.665856985888	169.5485786137138	1089.946549843414	2394.174348041618	56.32169790606122	1050.294885720801	2411.907550403104	72.64823877337709	1098.033556681125	2384.847638799082	100.6398105154548	1063.420125798778	2107.320156405789	1156.540923729395	1184.981976460299	2586.578874120541	154.0305254165385	1036.305033641268	2554.720091644521	98.22054292101348	1137.230983301484	2014.188132196615	1121.661016757515	1073.398448848684	2392.971733973929	231.9544789051367	1128.734505575595	2352.530148342659	218.5633085424541	1092.145723050809	2356.896287251425	304.4070201761308	1140.849343629611	2318.071496808121	290.8132842655335	1104.663264093162	2209.383228277813	706.3378935070265	1187.293969582865	2163.281337800687	680.8417058909894	1136.480920996441	2147.748884506133	796.3373460203693	1195.380600575379	2102.010970520655	771.7829640747245	1149.8668153669	
3939	26.25333333333333	2196.657327014266	1042.189954423303	925.5718143955201	1409.789055566162	481.1440448535001	997.4768262742115	1417.894609225361	458.6862925949105	951.8544635606301	1449.800280144058	471.4013997111525	991.4967998761832	2165.203128995703	1147.054330990645	886.4722443467944	1420.386146446367	271.2373046240565	1019.883161987619	1389.240113433714	308.4409352422182	916.7821011684827	2021.833244207996	1120.660666909567	979.5716841482946	1552.302911476343	451.1724522138951	919.311247503842	1534.858561122478	490.3163715415686	947.5851524738653	1623.217311065647	489.0628300292554	906.0119911596754	1608.604253339848	530.7660551848251	935.5833504673938	1962.640663319294	695.0235798168401	873.0657899480577	1907.137493664048	719.4655014094938	904.4134678898304	2001.392353241359	797.704520568828	861.2975844206829	1943.4821862696	822.895709642224	897.3551352334377	2183.626215755873	1049.665540744978	1137.263943476896	2543.521378189336	166.7749727213867	1089.757131209496	2393.986648934178	52.97303874037996	1049.533420697475	2411.401351689704	69.39354836553279	1097.396407910265	2384.389838492889	97.24492660143108	1062.639190382802	2106.72085845122	1153.203747417562	1185.352334821026	2585.81078643	151.5158398381114	1036.286906670967	2553.796443964434	95.72205527713251	1137.137790335929	2014.042389453787	1118.147669912447	1073.934987984452	2391.931762916672	228.7366401354561	1127.987460539142	2351.51869584906	215.138343101771	1091.331232753688	2355.654005234853	301.1221844254626	1139.930692990928	2316.893029432809	287.3743242609519	1103.697485647492	2208.619762650422	703.5648240856589	1185.186769728665	2162.14930051078	678.2652088235473	1134.674199698751	2147.396179611851	793.8203454842337	1193.542796384965	2101.325284762184	769.4207005077196	1148.247034391829	
3940	26.26	2197.248868467531	1041.049878348909	924.7824320041457	1413.913076444568	498.4407223571	996.5736760261289	1420.895311436765	475.6966686024861	950.9136040268365	1453.445417280234	486.9676887035576	990.4883447091778	2162.308655975394	1145.606310936836	885.5018593230552	1415.130997624329	288.1876422392982	1018.517635622555	1385.911996290659	327.0473247625639	915.4275956677436	2021.435713113199	1116.819574517587	980.1374728527758	1554.905901582679	461.3226235147553	917.8015751507181	1539.290994189932	501.5687573520341	945.7772265482663	1627.593219615669	495.7507320713275	904.2562199619508	1614.949931494393	538.3715866507408	933.5321878569019	1968.450628185295	689.9563943325304	870.7375704930104	1912.827995708241	713.0729539411294	902.81352635602	2005.225132567153	793.4850984388529	859.827297869302	1947.177462476794	817.2400020909979	896.6488615274839	2183.635901765073	1047.169907142277	1137.609161475976	2538.993210638836	161.828046213183	1089.145749420074	2389.313509022983	49.2259442436567	1048.297407735091	2406.524921628808	65.61996033313429	1096.267624663598	2379.987927085776	93.52746987004254	1061.244494645423	2105.838341238242	1149.408049648514	1185.635739494607	2581.479642451666	146.1592554741844	1035.932274974506	2548.589883814006	91.19023712633884	1136.802589199261	2013.732011656135	1113.908682428477	1074.122072237071	2388.284100914799	224.4827202933273	1126.924709538634	2347.759455339351	211.1587302932245	1090.26483621061	2352.53288929291	297.0566244351303	1138.898208361638	2313.691202072981	283.6384774692415	1102.670537731743	2208.444987427844	700.7980770234793	1183.143772787846	2161.46945133855	675.421720508014	1133.198319870759	2147.488807572466	791.1616745600143	1191.732384939658	2100.982764203911	766.7280311875058	1146.865080518284	
3941	26.26666666666667	2197.778707454191	1039.525407749232	923.8298685167892	1419.965357534521	514.4354018369046	995.4870124782966	1425.898746627825	491.4019087289109	949.8182511253368	1459.028606104872	501.2918269187542	989.2930931719358	2159.093221468443	1143.503501116807	884.2978240138295	1412.187397640659	303.9822145872718	1017.035109302631	1384.92973720568	344.3467250500287	913.934987329027	2021.072098198662	1112.025972880218	980.3379981083914	1559.285387350514	470.4641229013745	916.1576326156088	1545.456226031405	511.6380396000108	943.8409687062668	1633.456511242646	501.493667389661	902.3621607311699	1622.735420037297	544.8865750108993	931.3419495288865	1974.511046870196	684.4622335210823	868.4025385455323	1918.811195633572	706.2398314498655	901.215290341128	2009.255179111978	788.8174585353376	858.2608310463638	1951.077871957707	811.1241381293983	895.8006299217943	2183.777680216573	1044.443489086785	1137.995593526595	2531.286690141858	154.9399079067769	1087.981859846105	2380.362930282728	45.20773148484113	1046.619975101295	2397.522201585964	61.49729814595224	1094.644844678958	2371.84760323368	89.60620431901411	1059.226686169776	2104.68785088613	1145.157181701686	1185.805281507942	2573.750995788708	138.1954566265159	1035.116974653992	2539.377334156721	84.91945819835523	1136.148671122545	2013.268286944093	1109.011373726332	1073.931079591702	2382.234153078653	219.2897505911966	1125.495215455082	2341.440430910405	206.7073691101944	1088.942226255051	2347.713732073677	292.2838990439668	1137.725064826739	2308.634809488952	279.6593241496836	1101.587815059016	2208.815351898311	697.9620698013936	1181.288454230383	2161.253143471015	672.2657859932692	1132.103253525622	2147.972482758985	788.2892037498881	1190.05089285757	2100.980702571601	763.6556414517762	1145.75789271862	
3942	26.27333333333333	2198.242754935074	1037.587305238017	922.7548194554341	1427.678175834847	528.9314913122931	994.2591046967423	1432.675137642406	505.634451887654	948.5977656146113	1466.296719547448	514.2416915299207	987.9613462140949	2155.692176700521	1140.677288314747	882.9488544550072	1411.623378808055	318.4238296741057	1015.393517634334	1386.284320233326	360.1295759904183	912.2719311599712	2020.75271241571	1106.36494412373	980.1540238062702	1565.297663270672	478.5326760652997	914.4139082520558	1553.209587814658	520.4673474885694	941.8207128168485	1640.678217700413	506.2522207312243	900.3512850204539	1631.831006755705	550.2818839532837	929.0402800638082	1980.86062200034	678.5603096563557	866.065250533727	1925.089686666537	698.9989013319123	899.5514297856367	2013.538484110825	783.7084869692053	856.587853540384	1955.202964197812	804.572406372872	894.7229782567186	2184.003254613737	1041.45022727224	1138.367251820329	2520.617596554598	146.4987220732823	1086.158455523876	2367.432599807658	41.12286880364502	1044.567007973317	2384.716272378819	57.2897999028038	1092.556619485693	2360.238775062413	85.66938396125306	1056.605565821206	2103.288292239939	1140.434585316309	1185.836883055201	2562.808978993864	128.0495638115063	1033.753189742205	2526.486667905991	77.38211682208694	1135.130605682001	2012.65704536507	1103.544908348639	1073.361492898596	2374.019591252195	213.3673964357136	1123.658827536708	2332.786302818771	201.9674777679113	1087.379136778647	2341.400417363253	286.9723810353074	1136.383434119907	2301.920408879233	275.5711313255546	1100.462700814054	2209.637958315786	694.9898469483853	1179.728687962136	2161.474111498176	668.7797811051136	1131.404301547732	2148.752300289998	785.1497075317002	1188.58502253082	2101.281613324871	760.1829922114964	1144.936098146896	
